<?xml version="1.0" encoding="UTF-8" ?>
<!DOCTYPE svg PUBLIC "-//W3C//DTD SVG 1.1//EN" "http://www.w3.org/Graphics/SVG/1.1/DTD/svg11.dtd">
<svg width="450pt" height="450pt" viewBox="0 0 450 450" version="1.1" xmlns="http://www.w3.org/2000/svg">
<g id="#000000ff">
<path fill="#000000" opacity="1.00" d=" M 167.34 28.50 C 168.84 28.03 170.44 28.03 172.00 27.98 C 228.01 28.03 284.03 27.98 340.04 28.01 C 341.89 28.09 344.02 28.16 345.40 29.61 C 346.84 30.99 346.90 33.11 346.99 34.96 C 347.03 128.31 346.97 221.65 347.02 315.00 C 346.86 318.49 347.72 322.50 345.33 325.45 C 343.75 327.73 342.54 330.24 341.65 332.87 C 341.10 334.98 339.07 336.19 338.14 338.07 C 337.76 343.68 338.07 349.31 338.08 354.93 C 339.45 356.10 341.43 357.06 341.70 359.06 C 342.20 362.54 342.32 366.18 341.50 369.62 C 340.17 373.01 336.34 374.23 333.06 374.80 C 328.36 375.21 323.62 375.04 318.90 374.93 C 315.61 375.04 312.49 372.37 312.14 369.09 C 311.84 365.74 311.79 362.28 312.64 359.00 C 313.45 357.42 315.03 356.44 316.22 355.16 C 315.00 355.82 313.68 356.42 312.82 357.55 C 308.48 362.97 303.03 367.35 298.40 372.50 C 296.32 374.76 295.51 377.80 294.37 380.58 C 293.67 382.33 291.91 383.39 291.14 385.07 C 290.76 390.68 291.06 396.31 291.08 401.93 C 292.46 403.10 294.44 404.06 294.70 406.06 C 295.19 409.54 295.32 413.18 294.50 416.62 C 293.17 420.00 289.34 421.22 286.07 421.80 C 281.36 422.21 276.62 422.04 271.90 421.94 C 268.62 422.04 265.48 419.37 265.15 416.10 C 264.84 413.10 264.79 410.03 265.30 407.06 C 265.56 405.05 267.54 404.11 268.92 402.94 C 269.07 397.29 268.98 391.64 269.00 386.00 C 226.67 386.00 184.33 386.00 142.00 386.00 C 142.02 391.31 141.94 396.62 142.08 401.93 C 143.46 403.10 145.44 404.05 145.69 406.06 C 146.20 409.54 146.32 413.19 145.50 416.63 C 144.17 420.00 140.34 421.22 137.08 421.80 C 132.37 422.21 127.62 422.04 122.90 421.93 C 119.61 422.04 116.49 419.36 116.15 416.10 C 115.86 413.71 115.86 411.29 116.14 408.91 C 116.36 406.44 118.45 404.81 119.92 403.02 C 120.07 397.34 119.98 391.66 120.00 385.99 C 116.13 385.90 112.17 386.40 108.37 385.51 C 105.66 384.65 104.91 381.56 105.01 379.04 C 104.99 287.03 105.01 195.01 105.00 103.00 C 105.01 99.96 104.87 96.92 105.07 93.89 C 105.23 90.60 107.29 87.80 109.49 85.49 C 126.66 68.34 143.84 51.18 160.98 33.99 C 163.01 32.08 164.76 29.70 167.34 28.50 M 181.00 42.00 C 181.00 49.33 181.00 56.66 181.00 64.00 C 219.40 63.98 257.80 64.03 296.20 63.97 C 303.29 56.67 310.90 49.84 317.57 42.15 C 315.38 42.05 313.19 42.00 311.00 41.99 C 267.67 42.01 224.33 42.00 181.00 42.00 M 163.14 54.01 C 155.45 60.95 148.38 68.56 141.03 75.86 C 148.68 76.14 156.34 75.94 164.00 76.00 C 163.93 68.47 164.16 60.95 163.85 53.43 L 163.14 54.01 M 327.15 56.01 C 324.23 58.40 321.65 61.15 319.05 63.87 C 322.04 64.00 325.04 63.98 328.04 64.03 C 327.99 61.16 328.00 58.29 327.85 55.42 L 327.15 56.01 M 306.12 77.20 C 304.66 77.98 303.56 79.25 302.38 80.38 C 298.30 84.56 294.13 88.64 290.03 92.80 C 289.96 118.87 290.01 144.93 290.00 171.00 C 303.00 171.00 316.00 171.00 329.00 171.00 C 329.00 139.67 329.00 108.33 329.00 77.00 C 321.37 77.16 313.72 76.69 306.12 77.20 M 124.00 103.00 C 124.00 106.70 124.00 110.40 124.00 114.11 C 127.53 114.07 131.16 113.60 134.62 114.49 C 137.34 115.34 138.09 118.43 137.99 120.96 C 138.02 127.65 138.02 134.35 137.99 141.04 C 138.08 143.56 137.34 146.65 134.63 147.51 C 131.16 148.39 127.53 147.93 124.00 147.90 C 124.10 171.26 123.82 194.61 124.13 217.97 C 136.55 205.78 148.73 193.35 161.11 181.13 C 162.08 180.10 163.15 179.14 163.80 177.88 C 164.20 174.94 163.98 171.96 164.01 169.00 C 163.99 147.00 164.00 125.00 164.00 103.00 C 150.67 102.99 137.33 103.01 124.00 103.00 M 181.00 103.00 C 181.00 125.67 181.00 148.33 181.00 171.00 C 211.33 171.00 241.67 171.00 272.00 171.00 C 272.00 148.33 272.00 125.67 272.00 103.00 C 241.67 103.00 211.33 103.00 181.00 103.00 M 181.00 189.00 C 181.00 201.33 181.00 213.66 181.00 226.00 C 211.33 226.00 241.67 226.00 272.00 226.00 C 272.00 213.67 272.00 201.34 272.00 189.01 C 241.67 188.99 211.33 189.01 181.00 189.00 M 290.00 189.00 C 290.05 196.32 289.86 203.64 290.14 210.96 C 297.30 203.71 304.88 196.84 311.58 189.15 C 304.39 188.84 297.19 189.06 290.00 189.00 M 328.15 196.01 C 325.57 198.12 323.23 200.52 320.91 202.90 C 310.62 213.20 300.31 223.48 290.03 233.80 C 289.96 259.53 290.01 285.27 290.00 311.00 C 303.00 311.00 316.00 311.00 329.00 311.00 C 329.00 278.33 329.00 245.66 329.00 213.00 C 328.97 207.14 329.12 201.28 328.85 195.43 L 328.15 196.01 M 163.15 202.01 C 154.79 209.62 147.05 217.89 139.04 225.86 C 147.36 226.14 155.68 225.94 164.00 226.00 C 163.93 217.81 164.16 209.61 163.85 201.42 L 163.15 202.01 M 124.00 244.00 C 124.00 270.70 124.00 297.40 124.00 324.10 C 127.31 324.03 130.66 323.73 133.94 324.30 C 136.13 324.67 137.73 326.72 137.84 328.90 C 138.27 334.24 137.79 339.62 138.15 344.97 C 145.87 337.42 153.41 329.69 161.11 322.12 C 162.08 321.10 163.14 320.14 163.80 318.89 C 164.20 315.94 163.98 312.95 164.01 309.99 C 163.99 288.00 164.01 266.00 164.00 244.00 C 150.67 244.00 137.33 244.00 124.00 244.00 M 181.00 244.00 C 180.99 266.33 181.00 288.67 181.00 311.00 C 211.33 311.00 241.67 311.00 272.00 311.00 C 272.00 288.67 272.00 266.33 272.00 244.00 C 241.67 244.00 211.33 244.00 181.00 244.00 M 194.04 329.05 C 193.25 333.30 189.34 336.47 189.96 341.01 C 190.10 345.64 189.75 350.29 190.15 354.92 C 190.90 356.35 192.14 357.51 192.69 359.06 C 193.18 361.67 192.99 364.35 193.03 367.00 C 216.03 367.01 239.03 366.98 262.03 367.02 C 265.65 367.19 268.54 364.59 271.94 363.73 C 272.08 352.16 271.96 340.58 272.00 329.00 C 246.01 329.03 220.03 328.93 194.04 329.05 M 290.00 329.00 C 290.06 336.66 289.86 344.32 290.14 351.97 C 296.19 346.08 302.09 340.03 308.12 334.12 C 309.41 332.77 311.07 331.39 310.88 329.32 C 303.95 328.60 296.96 329.18 290.00 329.00 M 166.14 339.01 C 161.60 342.83 157.67 347.30 153.40 351.41 C 149.55 355.44 145.26 359.07 141.83 363.48 C 143.85 364.61 145.64 366.31 147.92 366.90 C 152.91 367.22 157.92 366.89 162.91 367.00 C 163.04 364.79 162.86 362.51 163.50 360.37 C 164.35 358.72 165.71 357.41 166.92 356.02 C 167.03 350.16 167.10 344.28 166.85 338.42 L 166.14 339.01 Z" />
</g>
</svg>
