<?xml version="1.0" encoding="UTF-8" ?>
<!DOCTYPE svg PUBLIC "-//W3C//DTD SVG 1.1//EN" "http://www.w3.org/Graphics/SVG/1.1/DTD/svg11.dtd">
<svg width="450pt" height="450pt" viewBox="0 0 450 450" version="1.1" xmlns="http://www.w3.org/2000/svg">
<g id="#000000ff">
<path fill="#000000" opacity="1.00" d=" M 167.35 28.51 C 168.52 28.17 169.73 28.00 170.96 28.00 C 226.97 27.98 282.99 28.03 339.00 27.98 C 341.18 28.07 343.72 27.92 345.40 29.60 C 346.82 30.99 346.92 33.10 346.99 34.97 C 347.01 127.98 346.98 220.99 347.01 314.00 C 346.85 318.06 347.86 322.71 344.94 326.07 C 342.07 329.52 342.24 334.88 338.14 337.35 C 337.90 343.21 337.97 349.08 338.08 354.94 C 339.48 356.09 341.42 357.05 341.70 359.05 C 342.21 362.31 342.21 365.68 341.70 368.95 C 340.75 372.76 336.54 374.22 333.08 374.80 C 328.37 375.21 323.62 375.03 318.90 374.94 C 315.61 375.04 312.51 372.37 312.14 369.11 C 311.82 366.02 311.86 362.86 312.44 359.81 C 312.70 357.63 314.98 356.76 316.19 355.17 C 314.97 355.81 313.66 356.41 312.81 357.54 C 308.38 363.19 302.61 367.61 297.95 373.05 C 294.99 376.45 295.31 381.91 291.14 384.35 C 290.89 390.21 290.97 396.08 291.08 401.95 C 292.49 403.09 294.42 404.05 294.70 406.05 C 295.21 409.03 295.15 412.10 294.85 415.11 C 294.62 417.82 292.38 419.92 289.90 420.75 C 286.15 422.36 281.99 421.99 278.00 422.03 C 275.35 421.98 272.67 422.16 270.05 421.70 C 267.54 421.03 265.42 418.72 265.15 416.10 C 264.85 413.09 264.79 410.03 265.30 407.05 C 265.57 405.05 267.51 404.09 268.92 402.95 C 269.07 397.30 268.98 391.65 269.00 386.00 C 226.67 386.00 184.33 386.00 142.00 386.00 C 142.02 391.32 141.93 396.63 142.08 401.95 C 143.49 403.09 145.42 404.05 145.70 406.05 C 146.21 409.03 146.15 412.10 145.85 415.11 C 145.62 417.82 143.38 419.91 140.91 420.75 C 137.14 422.36 132.98 421.98 128.99 422.03 C 126.35 421.98 123.67 422.16 121.05 421.70 C 118.54 421.02 116.41 418.72 116.15 416.10 C 115.86 413.71 115.86 411.28 116.14 408.90 C 116.35 406.43 118.45 404.82 119.91 403.04 C 120.08 397.36 119.98 391.67 120.00 386.00 C 116.13 385.89 112.17 386.41 108.38 385.51 C 105.65 384.66 104.91 381.55 105.01 379.03 C 105.00 284.34 105.00 189.65 105.00 94.96 C 104.86 91.27 107.02 88.03 109.48 85.48 C 126.66 68.33 143.83 51.16 160.99 33.98 C 163.01 32.06 164.75 29.68 167.35 28.51 M 175.10 42.19 C 173.86 42.87 172.89 43.93 171.88 44.89 C 161.65 55.26 151.24 65.44 141.05 75.86 C 147.36 76.13 153.68 75.96 160.00 76.00 C 201.40 75.98 242.80 76.04 284.21 75.97 C 292.85 67.35 301.47 58.72 310.10 50.09 C 312.70 47.56 315.30 45.01 317.55 42.16 C 312.37 41.89 307.18 42.02 302.00 42.00 C 262.67 42.00 223.33 42.01 184.00 41.99 C 181.03 42.02 178.05 41.80 175.10 42.19 M 335.15 48.02 C 332.55 50.12 330.23 52.52 327.90 54.91 C 315.28 67.54 302.63 80.15 290.03 92.80 C 289.95 179.87 290.03 266.93 289.99 354.00 C 289.97 357.65 289.99 361.30 290.14 364.95 C 304.56 350.77 318.74 336.35 333.11 322.12 C 334.07 321.10 335.13 320.13 335.81 318.89 C 336.22 315.61 335.96 312.29 336.00 309.00 C 336.00 227.33 336.00 145.67 336.00 64.00 C 335.97 58.48 336.12 52.96 335.85 47.45 L 335.15 48.02 M 116.00 99.00 C 116.00 191.00 116.00 283.00 116.00 375.00 C 169.33 375.00 222.67 375.00 276.00 375.00 C 276.00 283.00 276.00 191.00 276.00 99.00 C 222.67 99.00 169.33 99.00 116.00 99.00 Z" />
</g>
</svg>
