<?xml version="1.0" encoding="UTF-8" ?>
<!DOCTYPE svg PUBLIC "-//W3C//DTD SVG 1.1//EN" "http://www.w3.org/Graphics/SVG/1.1/DTD/svg11.dtd">
<svg width="450pt" height="450pt" viewBox="0 0 450 450" version="1.1" xmlns="http://www.w3.org/2000/svg">
<g id="#ffffffff">
<path fill="#ffffff" opacity="1.00" d=" M 169.14 28.14 C 171.42 27.86 173.72 28.03 176.01 28.00 C 229.34 28.00 282.67 28.00 335.99 28.00 C 339.18 28.02 342.69 27.59 345.47 29.52 C 347.42 32.30 346.97 35.81 347.01 39.01 C 347.00 131.67 346.99 224.33 347.01 316.99 C 347.02 320.05 347.32 323.66 344.86 325.96 C 341.73 329.16 342.54 335.07 338.16 337.17 C 337.82 343.18 338.06 349.21 338.02 355.23 C 340.23 355.92 341.68 357.83 341.86 360.14 C 342.08 364.50 342.88 369.97 338.88 372.98 C 333.01 375.93 326.27 374.80 319.93 375.00 C 316.52 375.19 312.81 373.14 312.28 369.53 C 311.77 365.77 311.68 361.80 312.89 358.16 C 313.63 356.56 316.13 357.20 315.99 355.12 C 314.03 356.02 312.57 357.59 311.39 359.35 C 306.95 363.93 302.38 368.40 297.87 372.91 C 294.75 376.14 295.55 382.05 291.15 384.18 C 290.82 390.19 291.07 396.21 291.01 402.23 C 293.59 402.93 294.87 405.42 294.96 407.96 C 295.07 412.08 295.69 417.18 291.88 419.97 C 287.92 421.92 283.37 422.23 279.00 422.00 C 275.21 421.77 270.91 422.84 267.62 420.45 C 264.43 417.95 265.00 413.50 265.00 409.93 C 264.91 407.11 266.03 404.04 268.98 403.22 C 269.02 397.48 268.99 391.74 269.00 386.00 C 226.67 386.00 184.33 386.00 142.00 386.00 C 142.01 391.41 141.98 396.82 142.02 402.23 C 144.24 402.92 145.67 404.82 145.86 407.14 C 146.15 411.64 146.84 417.41 142.46 420.29 C 139.69 421.03 136.95 422.19 134.03 422.01 C 129.84 421.84 125.61 422.34 121.46 421.72 C 118.25 421.22 116.12 418.16 116.04 415.04 C 115.98 412.12 115.62 408.96 117.09 406.30 C 117.91 405.14 118.99 404.19 119.98 403.18 C 120.02 397.45 119.99 391.73 120.00 386.00 C 115.53 385.66 110.55 387.03 106.52 384.48 C 104.59 381.69 105.02 378.19 105.00 375.00 C 105.01 281.65 105.00 188.29 105.00 94.94 C 105.00 92.06 106.23 89.22 108.11 87.08 C 126.27 68.93 144.44 50.76 162.60 32.60 C 164.47 30.72 166.27 28.35 169.14 28.14 M 181.00 42.00 C 181.00 49.33 180.99 56.67 181.00 64.00 C 219.40 63.98 257.80 64.03 296.20 63.98 C 303.51 56.74 310.74 49.42 318.05 42.18 C 315.37 41.91 312.68 42.00 309.99 42.00 C 267.00 42.00 224.00 42.00 181.00 42.00 M 163.33 53.44 C 155.90 60.93 148.43 68.38 140.95 75.82 C 148.62 76.22 156.32 75.89 164.00 76.00 C 163.89 68.32 164.22 60.62 163.83 52.95 L 163.33 53.44 M 327.33 55.44 C 324.57 58.27 321.75 61.03 318.95 63.82 C 321.96 64.11 324.98 63.99 328.00 64.00 C 327.98 60.98 328.11 57.96 327.82 54.95 L 327.33 55.44 M 305.35 77.46 C 300.23 82.57 295.11 87.67 290.02 92.80 C 289.97 118.87 290.01 144.93 290.00 171.00 C 303.00 171.00 316.00 171.00 329.00 171.00 C 329.00 139.67 329.00 108.33 329.00 77.00 C 321.27 77.01 313.53 76.97 305.80 77.02 L 305.35 77.46 M 124.00 103.00 C 124.00 106.72 124.01 110.44 123.99 114.16 C 127.61 114.10 131.42 113.44 134.91 114.71 C 137.20 115.29 137.70 117.94 137.96 119.96 C 138.07 126.64 137.95 133.34 138.01 140.03 C 138.07 142.25 137.79 144.60 136.47 146.46 C 132.78 148.88 128.13 147.86 123.99 147.84 C 124.01 168.23 124.00 188.61 124.00 209.00 C 124.02 212.02 123.88 215.04 124.18 218.05 C 137.41 204.72 150.75 191.51 163.98 178.19 C 164.02 153.12 163.99 128.06 164.00 103.00 C 150.67 103.00 137.33 103.00 124.00 103.00 M 181.00 103.00 C 181.00 125.67 181.00 148.33 181.00 171.00 C 211.33 171.00 241.67 171.00 272.00 171.00 C 272.00 148.33 272.00 125.67 272.00 103.00 C 241.67 103.00 211.33 103.00 181.00 103.00 M 181.00 189.00 C 181.00 201.33 181.00 213.67 181.00 226.00 C 211.33 226.00 241.67 226.00 272.00 226.00 C 272.00 213.67 272.00 201.33 272.00 189.00 C 241.66 189.00 211.33 189.00 181.00 189.00 M 290.00 189.00 C 290.11 196.35 289.78 203.71 290.18 211.06 C 297.44 203.74 304.73 196.44 312.05 189.19 C 304.71 188.77 297.35 189.11 290.00 189.00 M 328.33 195.43 C 315.60 208.27 302.76 220.98 290.02 233.81 C 289.97 259.54 290.01 285.27 290.00 311.00 C 303.00 311.00 316.00 311.00 329.00 311.00 C 329.00 275.33 329.00 239.67 329.00 204.00 C 328.98 200.98 329.11 197.95 328.82 194.95 L 328.33 195.43 M 163.32 201.44 C 155.23 209.60 147.10 217.72 138.95 225.82 C 147.29 226.22 155.65 225.89 164.00 226.00 C 163.89 217.65 164.23 209.29 163.82 200.95 L 163.32 201.44 M 124.00 244.00 C 123.99 270.72 124.01 297.44 123.99 324.16 C 128.13 324.14 132.78 323.12 136.46 325.54 C 137.38 326.82 137.82 328.40 137.96 329.96 C 138.16 334.99 137.76 340.03 138.18 345.05 C 146.75 336.40 155.41 327.84 163.98 319.19 C 164.03 294.13 163.98 269.06 164.00 244.00 C 150.67 244.00 137.34 244.00 124.00 244.00 M 181.00 244.00 C 181.00 266.33 181.00 288.67 181.00 311.00 C 211.33 311.00 241.67 311.00 272.00 311.00 C 272.00 288.67 272.00 266.33 272.00 244.00 C 241.67 244.00 211.33 244.00 181.00 244.00 M 194.06 329.11 C 192.60 331.65 192.60 334.98 190.04 336.83 C 190.03 343.16 189.86 349.49 190.13 355.82 C 194.10 357.91 192.75 363.31 193.00 367.00 C 216.68 366.98 240.37 367.03 264.06 366.98 C 266.81 366.41 269.02 364.19 271.94 363.95 C 272.09 352.30 271.96 340.65 272.00 329.00 C 246.02 329.07 220.04 328.85 194.06 329.11 M 290.00 329.00 C 290.11 336.68 289.77 344.38 290.18 352.05 C 297.08 344.99 304.22 338.16 311.04 331.03 C 311.08 329.62 310.42 328.95 309.08 329.03 C 302.72 328.94 296.36 329.03 290.00 329.00 M 166.33 338.44 C 157.96 346.85 149.58 355.26 141.15 363.60 C 143.32 364.17 145.31 365.29 146.84 366.96 C 152.22 367.06 157.61 366.97 162.99 367.00 C 163.03 364.94 162.81 362.81 163.45 360.81 C 163.92 358.83 165.66 357.60 166.98 356.19 C 166.92 350.11 167.21 344.02 166.82 337.95 L 166.33 338.44 Z" />
</g>
</svg>
