<?xml version="1.0" encoding="UTF-8" ?>
<!DOCTYPE svg PUBLIC "-//W3C//DTD SVG 1.1//EN" "http://www.w3.org/Graphics/SVG/1.1/DTD/svg11.dtd">
<svg width="450pt" height="450pt" viewBox="0 0 450 450" version="1.1" xmlns="http://www.w3.org/2000/svg">
<g id="#ffffffff">
<path fill="#ffffff" opacity="1.00" d=" M 169.13 28.12 C 172.08 27.85 175.05 28.03 178.00 28.00 C 232.36 28.01 286.72 27.99 341.08 28.00 C 342.96 28.01 344.93 28.34 346.45 29.55 C 348.54 32.24 347.90 35.84 348.02 39.00 C 347.98 130.00 348.01 221.00 348.00 312.00 C 347.96 315.28 348.16 318.58 347.88 321.87 C 347.71 324.41 345.49 326.02 344.24 328.06 C 342.82 330.01 343.00 332.60 341.92 334.71 C 341.18 335.78 340.09 336.53 339.12 337.38 C 338.89 343.29 339.02 349.21 339.03 355.13 C 340.65 356.86 342.72 358.57 342.89 361.13 C 343.02 364.54 343.66 368.49 341.44 371.41 C 337.76 373.76 333.40 375.29 328.99 375.03 C 325.26 374.87 321.46 375.39 317.80 374.60 C 314.73 373.41 312.09 370.46 312.02 367.06 C 311.93 364.70 311.79 362.24 312.65 360.00 C 313.64 358.52 314.91 357.26 315.96 355.83 C 314.61 356.75 313.45 357.92 312.39 359.16 C 307.87 364.35 302.62 368.86 297.98 373.94 C 296.18 375.85 296.05 378.55 295.27 380.92 C 294.78 382.48 293.25 383.34 292.11 384.38 C 291.93 390.46 291.92 396.55 292.12 402.62 C 293.95 403.96 295.76 405.71 295.89 408.14 C 296.00 411.53 296.69 415.50 294.42 418.38 C 291.32 420.37 287.85 422.32 284.03 422.02 C 278.19 421.63 271.54 423.40 266.56 419.40 C 264.34 416.50 264.98 412.54 265.11 409.14 C 265.24 406.71 267.05 404.96 268.89 403.62 C 269.11 397.43 268.99 391.24 268.96 385.05 C 226.97 384.94 184.98 385.03 143.00 385.00 C 143.05 390.87 142.88 396.75 143.11 402.62 C 144.95 403.96 146.76 405.71 146.89 408.14 C 147.10 411.99 147.75 416.79 144.34 419.53 C 141.03 421.70 136.87 422.16 132.99 422.02 C 129.48 421.92 125.94 422.25 122.46 421.77 C 118.22 420.74 115.40 416.29 115.95 412.00 C 115.60 408.67 116.95 405.35 119.89 403.62 C 120.09 397.33 120.04 391.04 119.91 384.76 C 114.08 387.52 108.86 391.37 103.12 394.31 C 85.11 405.06 66.87 415.44 48.89 426.25 C 46.80 427.55 44.34 426.58 42.12 426.28 C 39.91 425.82 37.41 425.93 35.54 424.46 C 33.47 421.75 34.09 418.16 33.98 415.00 C 34.02 324.00 34.00 233.00 33.99 142.00 C 34.09 138.94 33.68 135.81 34.40 132.80 C 35.06 130.23 37.57 128.96 39.61 127.62 C 62.10 114.43 84.61 101.28 107.07 88.04 C 126.48 68.83 145.72 49.40 165.08 30.12 C 166.16 29.03 167.57 28.24 169.13 28.12 M 175.35 42.46 C 164.19 53.61 153.06 64.78 141.88 75.91 C 189.65 76.11 237.42 75.95 285.19 75.99 C 296.51 64.70 307.79 53.37 319.12 42.09 C 271.35 41.89 223.58 42.05 175.81 42.01 L 175.35 42.46 M 336.34 47.45 C 320.92 62.92 305.44 78.35 290.01 93.81 C 289.99 180.87 290.01 267.93 290.00 355.00 C 289.99 358.70 289.97 362.41 290.09 366.12 C 305.70 350.46 321.37 334.84 336.99 319.19 C 337.01 232.13 336.99 145.06 337.00 58.00 C 337.00 54.29 337.03 50.58 336.91 46.88 L 336.34 47.45 M 111.49 102.66 C 91.97 114.09 72.48 125.58 52.93 136.95 C 51.54 137.75 52.19 139.69 51.98 140.98 C 52.08 231.07 51.89 321.16 52.07 411.25 C 71.86 399.58 91.69 387.98 111.54 376.39 C 113.40 375.76 112.90 373.53 113.02 372.02 C 112.92 281.93 113.11 191.84 112.93 101.75 C 112.57 101.98 111.85 102.43 111.49 102.66 M 124.00 103.00 C 124.06 141.71 123.88 180.42 124.09 219.13 C 139.22 203.92 154.44 188.80 169.57 173.60 C 171.15 171.75 173.52 170.87 175.92 171.00 C 208.28 171.00 240.64 171.00 273.00 171.00 C 273.00 148.33 273.00 125.67 273.00 103.00 C 223.33 103.00 173.67 103.00 124.00 103.00 M 176.35 182.46 C 161.85 196.94 147.39 211.45 132.88 225.91 C 179.58 226.11 226.29 225.94 273.00 226.00 C 273.00 211.33 273.00 196.67 273.00 182.00 C 240.94 182.01 208.87 181.99 176.81 182.01 L 176.35 182.46 M 124.00 244.00 C 124.06 282.37 123.88 320.75 124.09 359.12 C 139.40 343.77 154.74 328.44 170.08 313.12 C 171.56 311.48 173.80 310.95 175.92 311.00 C 208.28 310.99 240.64 311.00 273.00 311.00 C 273.00 288.67 273.00 266.33 273.00 244.00 C 223.33 244.00 173.67 244.00 124.00 244.00 M 176.35 322.46 C 161.52 337.27 146.73 352.12 131.87 366.91 C 178.91 367.12 225.96 366.94 273.00 367.00 C 273.00 352.00 273.00 337.00 273.00 322.00 C 240.94 322.01 208.87 321.99 176.81 322.01 L 176.35 322.46 Z" />
</g>
</svg>
