<?xml version="1.0" encoding="UTF-8" ?>
<!DOCTYPE svg PUBLIC "-//W3C//DTD SVG 1.1//EN" "http://www.w3.org/Graphics/SVG/1.1/DTD/svg11.dtd">
<svg width="450pt" height="450pt" viewBox="0 0 450 450" version="1.1" xmlns="http://www.w3.org/2000/svg">
<g id="#000000ff">
<path fill="#000000" opacity="1.00" d=" M 124.38 30.53 C 126.44 29.67 128.97 29.88 130.82 31.14 C 131.88 32.22 132.53 33.62 133.31 34.91 C 136.87 35.01 140.44 35.02 144.00 35.01 C 206.00 34.98 268.00 35.04 330.00 34.98 C 332.18 35.09 334.71 34.96 336.41 36.59 C 338.03 38.29 337.91 40.82 338.02 43.00 C 337.98 134.67 338.00 226.33 338.01 318.00 C 337.86 322.30 338.70 326.86 336.79 330.90 C 335.08 334.45 334.79 338.97 331.09 341.19 C 330.94 347.39 330.94 353.60 331.09 359.81 C 332.24 360.92 333.75 361.82 334.32 363.41 C 335.64 367.15 337.18 370.96 337.04 375.01 C 337.02 382.88 336.94 390.75 337.04 398.63 C 338.51 399.22 340.07 399.70 341.40 400.60 C 343.53 402.97 343.54 407.00 341.34 409.34 C 338.50 412.49 335.49 415.50 332.34 418.34 C 330.17 420.38 326.60 420.50 324.17 418.86 C 323.12 417.77 322.46 416.37 321.69 415.09 C 271.79 414.86 221.89 415.10 172.00 414.97 C 169.38 414.99 166.74 414.80 164.16 415.25 C 162.35 416.35 160.92 417.95 159.16 419.12 C 155.84 421.29 150.28 419.36 150.10 415.05 C 149.37 411.73 151.97 409.23 153.93 406.97 C 154.09 396.32 153.98 385.66 153.96 375.01 C 153.82 370.95 155.35 367.14 156.68 363.40 C 157.25 361.82 158.76 360.92 159.91 359.82 C 160.06 353.60 160.05 347.39 159.91 341.18 C 157.36 339.57 155.99 336.95 155.64 334.00 C 146.41 334.06 137.16 333.90 127.93 334.03 C 125.26 333.86 123.75 336.45 121.72 337.72 C 118.49 340.48 112.30 338.63 112.10 334.06 C 111.37 330.73 113.97 328.23 115.93 325.97 C 116.10 237.31 115.94 148.66 116.01 60.00 C 116.01 57.06 115.99 54.11 115.91 51.17 C 114.34 49.75 112.19 48.42 112.09 46.05 C 111.33 42.44 114.28 39.83 116.56 37.55 C 119.13 35.18 121.31 32.28 124.38 30.53 M 166.00 46.00 C 166.00 138.00 166.00 230.00 166.00 322.00 C 219.33 322.00 272.67 322.00 326.00 322.00 C 326.00 230.00 326.00 138.00 326.00 46.00 C 272.67 46.00 219.33 46.00 166.00 46.00 M 128.00 47.00 C 128.00 132.33 128.00 217.66 128.00 303.00 C 128.00 307.88 127.94 312.76 128.10 317.64 C 130.05 318.75 131.76 320.20 133.22 321.90 C 140.14 322.10 147.07 321.96 154.00 322.00 C 154.00 230.33 154.00 138.67 154.00 47.00 C 145.33 47.00 136.67 47.00 128.00 47.00 M 186.42 334.00 C 185.94 337.60 182.71 340.26 182.98 343.98 C 182.98 348.67 182.90 353.36 183.02 358.05 C 182.92 361.01 185.94 362.93 185.97 365.89 C 186.13 368.66 186.31 371.60 185.23 374.23 C 184.37 376.20 182.07 376.84 180.11 376.92 C 175.41 377.18 170.70 376.94 166.00 376.99 C 166.04 384.21 165.89 391.42 166.10 398.63 C 168.05 399.75 169.76 401.19 171.22 402.90 C 222.47 403.14 273.74 402.93 325.00 403.00 C 325.00 394.33 325.00 385.66 325.00 376.99 C 319.97 376.91 314.92 377.28 309.91 376.82 C 308.00 376.67 306.06 375.55 305.52 373.62 C 304.68 370.53 304.76 367.20 305.31 364.07 C 305.69 362.12 307.60 361.10 308.91 359.82 C 309.05 353.61 309.05 347.39 308.91 341.18 C 306.36 339.57 304.99 336.95 304.64 334.00 C 265.23 334.00 225.83 334.00 186.42 334.00 Z" />
<path fill="#000000" opacity="1.00" d=" M 76.39 99.52 C 81.37 98.54 86.77 100.05 90.40 103.63 C 95.23 108.39 97.93 114.90 103.07 119.41 C 103.46 112.71 103.24 105.99 103.27 99.28 C 105.90 99.28 108.53 99.27 111.17 99.25 C 111.38 109.90 111.31 120.55 111.21 131.20 C 106.47 130.47 101.62 129.13 97.97 125.87 C 93.00 121.45 90.24 115.12 85.30 110.68 C 82.50 108.17 77.94 107.67 74.82 109.86 C 71.93 111.96 71.81 116.48 73.90 119.18 C 75.85 121.14 78.84 121.24 81.36 121.96 C 81.40 124.75 81.41 127.55 81.40 130.34 C 77.24 129.89 72.78 129.31 69.48 126.48 C 65.50 123.29 64.70 117.68 65.09 112.89 C 65.38 106.60 70.11 100.67 76.39 99.52 Z" />
<path fill="#000000" opacity="1.00" d=" M 63.29 128.87 C 79.31 134.84 95.23 141.09 111.23 147.12 C 111.24 149.60 111.25 152.07 111.24 154.55 C 95.22 148.46 79.16 142.47 63.27 136.06 C 63.28 133.66 63.28 131.27 63.29 128.87 Z" />
<path fill="#000000" opacity="1.00" d=" M 65.22 163.68 C 80.56 163.47 95.91 163.55 111.25 163.64 C 111.26 166.67 111.24 169.71 111.19 172.75 C 100.58 172.78 89.97 172.50 79.37 172.92 C 79.43 176.44 79.43 179.96 79.39 183.48 C 77.59 183.46 75.78 183.49 73.98 183.31 C 72.41 180.70 73.26 177.11 71.45 174.53 C 70.04 172.39 67.50 171.57 65.30 170.53 C 65.28 168.25 65.25 165.96 65.22 163.68 Z" />
<path fill="#000000" opacity="1.00" d=" M 94.25 208.07 C 96.58 208.03 98.91 208.00 101.24 207.98 C 101.25 209.71 101.26 211.44 101.26 213.18 C 104.57 213.26 107.87 213.29 111.18 213.28 C 111.24 216.17 111.27 219.07 111.29 221.97 C 107.94 221.99 104.59 222.01 101.24 222.07 C 101.32 228.14 101.31 234.20 101.23 240.27 C 97.85 240.20 94.13 240.88 91.15 238.86 C 84.50 234.86 77.99 230.65 71.29 226.74 C 69.44 225.59 67.42 224.60 65.93 222.97 C 65.47 219.75 65.75 216.48 65.83 213.25 C 75.30 213.30 84.76 213.32 94.23 213.23 C 94.24 211.51 94.25 209.79 94.25 208.07 M 75.48 222.16 C 81.63 226.01 87.87 229.70 94.16 233.31 C 94.29 229.55 94.30 225.78 94.26 222.01 C 88.00 222.02 81.74 221.88 75.48 222.16 Z" />
<path fill="#000000" opacity="1.00" d=" M 92.38 245.50 C 99.96 242.32 109.94 246.75 111.86 254.93 C 113.02 260.57 112.90 267.30 108.83 271.80 C 105.84 275.15 101.18 275.87 96.97 276.43 C 97.00 273.52 97.03 270.60 97.12 267.69 C 99.44 267.05 102.34 266.98 103.83 264.78 C 105.86 261.73 105.37 256.93 102.15 254.86 C 99.18 252.97 94.37 253.18 92.39 256.41 C 91.05 258.71 91.18 261.49 90.80 264.05 C 88.73 263.99 86.67 263.93 84.60 263.86 C 84.27 261.75 84.27 259.52 83.36 257.57 C 81.08 254.07 75.04 254.51 73.04 258.10 C 72.11 260.31 72.28 263.20 73.97 265.02 C 75.63 266.32 77.82 266.63 79.77 267.29 C 79.73 270.12 79.67 272.94 79.56 275.77 C 75.95 275.05 71.97 274.54 69.27 271.77 C 64.43 267.64 64.25 260.44 65.82 254.75 C 67.39 249.09 73.26 245.04 79.15 246.10 C 82.27 246.14 84.57 248.40 86.48 250.60 C 88.26 248.72 89.94 246.56 92.38 245.50 Z" />
<path fill="#000000" opacity="1.00" d=" M 259.22 351.27 C 264.30 350.43 270.20 351.17 273.89 355.10 C 277.24 358.45 278.09 363.84 276.22 368.15 C 275.38 370.01 273.90 371.47 272.60 373.01 C 275.76 375.87 278.59 379.56 278.55 384.04 C 279.13 389.70 275.67 395.34 270.44 397.49 C 264.98 399.70 258.44 399.66 253.21 396.83 C 247.13 393.37 245.21 385.04 247.90 378.83 C 249.02 376.45 251.09 374.75 252.95 372.97 C 250.66 370.46 248.36 367.58 248.31 364.01 C 247.67 357.66 253.02 351.91 259.22 351.27 M 259.44 359.63 C 256.51 361.42 255.93 366.19 258.54 368.51 C 260.80 370.34 264.44 370.70 266.77 368.79 C 268.97 366.78 269.13 363.00 267.28 360.71 C 265.36 358.53 261.93 358.58 259.44 359.63 M 259.41 377.59 C 254.96 380.24 254.99 387.76 259.42 390.41 C 262.39 391.65 266.44 391.22 268.31 388.32 C 269.76 385.71 269.77 382.29 268.31 379.68 C 266.44 376.77 262.39 376.34 259.41 377.59 Z" />
<path fill="#000000" opacity="1.00" d=" M 226.39 352.01 C 228.82 352.02 231.26 352.05 233.69 352.10 C 233.57 367.37 233.57 382.64 233.69 397.91 C 230.54 397.97 227.39 397.98 224.24 397.96 C 224.32 387.31 224.31 376.66 224.25 366.01 C 220.70 366.00 217.15 365.99 213.61 365.99 C 213.60 364.06 213.60 362.13 213.60 360.21 C 216.76 359.74 220.26 359.86 222.98 357.93 C 224.98 356.59 225.50 354.08 226.39 352.01 Z" />
</g>
</svg>
