<?xml version="1.0" encoding="UTF-8" ?>
<!DOCTYPE svg PUBLIC "-//W3C//DTD SVG 1.1//EN" "http://www.w3.org/Graphics/SVG/1.1/DTD/svg11.dtd">
<svg width="450pt" height="450pt" viewBox="0 0 450 450" version="1.1" xmlns="http://www.w3.org/2000/svg">
<g id="#ffffffff">
<path fill="#ffffff" opacity="1.00" d=" M 169.15 28.13 C 171.42 27.87 173.72 28.03 176.00 28.00 C 229.33 28.00 282.67 28.01 336.00 27.99 C 339.18 28.05 342.72 27.54 345.47 29.54 C 347.46 32.29 346.95 35.82 347.01 39.01 C 347.00 131.67 346.99 224.33 347.01 316.99 C 347.02 320.05 347.34 323.66 344.86 325.95 C 341.75 329.18 342.54 335.05 338.16 337.18 C 337.82 343.18 338.07 349.20 338.02 355.22 C 340.23 355.93 341.69 357.82 341.87 360.15 C 342.06 364.50 342.90 369.97 338.89 372.96 C 333.35 375.83 326.97 374.84 320.96 375.01 C 318.31 375.12 315.25 374.63 313.54 372.38 C 311.51 369.67 312.03 366.10 312.00 362.93 C 312.10 360.44 312.46 356.87 315.58 356.53 C 315.68 356.18 315.89 355.46 315.99 355.10 C 313.76 356.09 312.35 358.07 310.89 359.92 C 306.55 364.25 302.22 368.60 297.86 372.92 C 294.76 376.16 295.54 382.05 291.16 384.18 C 290.82 390.18 291.07 396.21 291.02 402.23 C 293.58 402.94 294.90 405.42 294.96 407.97 C 295.06 412.08 295.71 417.19 291.89 419.96 C 286.36 422.83 279.97 421.84 273.97 422.01 C 271.31 422.12 268.27 421.65 266.55 419.39 C 264.34 416.39 265.07 412.43 265.04 408.96 C 265.09 406.41 266.43 403.94 268.99 403.22 C 269.01 397.48 269.00 391.74 269.00 386.00 C 226.67 386.00 184.33 386.00 142.00 386.00 C 142.00 391.40 141.99 396.81 142.01 402.21 C 144.22 402.91 145.70 404.82 145.87 407.14 C 146.06 411.49 146.91 416.97 142.89 419.96 C 136.72 423.06 129.62 421.77 122.97 421.96 C 119.84 421.90 116.77 419.73 116.27 416.53 C 115.82 413.88 115.84 411.12 116.26 408.47 C 116.60 406.19 118.46 404.71 119.98 403.19 C 120.02 397.46 119.99 391.73 120.00 386.00 C 115.54 385.63 110.52 387.08 106.54 384.46 C 104.53 381.72 105.05 378.17 105.00 375.00 C 105.01 281.64 105.00 188.29 105.00 94.93 C 104.98 92.06 106.23 89.22 108.10 87.09 C 126.27 68.93 144.43 50.77 162.59 32.60 C 164.47 30.73 166.27 28.34 169.15 28.13 M 174.35 42.46 C 163.20 53.57 152.11 64.74 140.94 75.83 C 143.29 76.05 145.64 76.01 148.00 76.00 C 193.40 75.98 238.79 76.02 284.19 75.98 C 295.51 64.74 306.74 53.41 318.06 42.17 C 315.71 41.95 313.36 41.99 311.01 42.00 C 265.61 42.02 220.21 41.97 174.81 42.02 L 174.35 42.46 M 335.34 47.43 C 320.27 62.60 305.10 77.65 290.02 92.81 C 289.97 181.20 290.02 269.60 289.99 358.00 C 289.98 360.35 289.95 362.71 290.18 365.06 C 305.41 349.73 320.75 334.51 335.99 319.18 C 336.02 230.79 335.98 142.40 336.00 54.00 C 336.01 51.65 336.05 49.29 335.83 46.94 L 335.34 47.43 M 116.00 99.00 C 116.00 191.00 116.00 283.00 116.00 375.00 C 169.33 375.00 222.67 375.00 276.00 375.00 C 276.00 283.00 276.00 191.00 276.00 99.00 C 222.67 99.00 169.33 99.00 116.00 99.00 Z" />
</g>
</svg>
