<?xml version="1.0" encoding="UTF-8" ?>
<!DOCTYPE svg PUBLIC "-//W3C//DTD SVG 1.1//EN" "http://www.w3.org/Graphics/SVG/1.1/DTD/svg11.dtd">
<svg width="450pt" height="450pt" viewBox="0 0 450 450" version="1.1" xmlns="http://www.w3.org/2000/svg">
<g id="#000000ff">
<path fill="#000000" opacity="1.00" d=" M 167.37 28.62 C 171.13 27.51 175.13 28.09 179.00 27.98 C 232.67 28.02 286.35 28.01 340.02 27.98 C 341.98 28.08 344.11 28.06 345.84 29.14 C 347.40 30.15 347.74 32.17 347.91 33.88 C 348.22 38.58 347.95 43.29 348.00 48.00 C 348.02 138.34 347.96 228.68 348.03 319.02 C 348.04 320.97 347.79 323.00 346.62 324.63 C 344.10 328.30 342.66 332.55 340.41 336.37 C 339.78 337.47 339.09 338.60 339.07 339.92 C 338.75 344.89 339.07 349.88 339.07 354.86 C 340.97 357.20 343.25 359.67 343.07 362.93 C 343.08 366.09 343.49 370.39 340.22 372.17 C 334.13 375.88 326.68 375.15 319.88 374.90 C 315.80 374.79 312.21 371.17 312.03 367.12 C 311.85 364.38 312.26 361.66 312.64 358.97 C 308.44 363.66 303.77 367.89 299.37 372.40 C 296.85 374.90 296.14 378.51 294.46 381.53 C 293.60 383.29 292.14 384.88 292.07 386.93 C 291.82 391.30 291.85 395.70 292.06 400.08 C 292.21 403.45 295.74 405.51 295.98 408.88 C 296.19 411.46 296.24 414.14 295.45 416.63 C 294.79 418.47 292.93 419.40 291.33 420.26 C 286.95 422.66 281.79 421.97 277.00 422.08 C 273.24 422.06 268.82 421.90 266.17 418.82 C 264.57 416.16 264.86 412.85 265.02 409.88 C 265.26 406.50 268.79 404.44 268.95 401.08 C 269.22 395.73 268.92 390.37 268.97 385.02 C 226.99 384.98 185.00 385.01 143.01 385.00 C 143.07 390.02 142.79 395.05 143.05 400.07 C 143.21 403.44 146.73 405.50 146.99 408.88 C 147.18 411.66 147.31 414.63 146.17 417.24 C 144.68 420.26 141.07 421.17 138.04 421.76 C 133.02 422.21 127.93 422.25 122.91 421.78 C 117.89 421.09 115.20 415.60 115.92 410.93 C 115.63 406.70 120.41 404.26 120.02 400.04 C 120.14 394.91 119.96 389.78 119.92 384.66 C 99.75 396.13 79.90 408.15 59.78 419.71 C 56.20 421.77 52.82 424.16 49.14 426.05 C 46.92 427.35 44.31 426.69 41.92 426.35 C 39.78 425.90 37.40 425.79 35.60 424.40 C 34.02 422.70 34.11 420.18 33.98 418.01 C 34.01 324.34 34.02 230.66 33.98 136.98 C 34.09 134.82 34.03 132.34 35.62 130.65 C 36.95 129.28 38.57 128.25 40.18 127.24 C 61.25 115.03 82.18 102.57 103.25 90.36 C 105.55 88.98 107.82 87.50 109.70 85.56 C 127.57 67.47 145.68 49.62 163.57 31.55 C 164.73 30.45 165.90 29.30 167.37 28.62 M 176.15 42.27 C 174.66 42.98 173.55 44.25 172.37 45.36 C 162.30 55.65 152.01 65.73 141.88 75.97 C 189.65 76.05 237.41 75.98 285.18 76.00 C 296.44 64.67 307.84 53.48 319.01 42.06 C 272.67 41.89 226.33 42.10 179.99 41.96 C 178.69 41.94 177.42 42.05 176.15 42.27 M 336.12 47.78 C 320.67 63.05 305.39 78.49 290.00 93.82 C 290.02 184.59 289.95 275.35 290.03 366.12 C 304.77 351.49 319.35 336.70 334.14 322.13 C 335.07 321.10 336.14 320.13 336.73 318.85 C 337.30 315.26 336.97 311.61 337.02 308.00 C 336.93 221.00 337.09 133.99 336.94 46.99 L 336.12 47.78 M 112.25 102.24 C 95.67 111.95 79.05 121.62 62.53 131.42 C 59.15 133.39 55.53 135.04 52.46 137.48 C 51.54 141.58 52.09 145.84 51.99 150.01 C 52.02 237.07 51.99 324.14 52.00 411.20 C 70.40 400.59 88.60 389.65 107.02 379.08 C 108.91 377.97 110.84 376.91 112.54 375.53 C 113.46 371.42 112.91 367.16 113.01 362.99 C 112.98 275.93 113.01 188.86 113.00 101.80 L 112.25 102.24 M 124.00 103.00 C 124.02 141.71 123.95 180.41 124.04 219.12 C 139.07 204.12 154.10 189.11 169.07 174.05 C 171.06 171.79 174.00 170.77 176.98 170.97 C 208.98 171.03 240.99 170.99 273.00 171.00 C 273.00 148.33 273.00 125.67 273.00 103.00 C 223.33 103.00 173.67 103.00 124.00 103.00 M 177.15 182.27 C 175.87 182.85 174.89 183.92 173.87 184.86 C 160.30 198.65 146.51 212.23 132.89 225.97 C 179.59 226.05 226.30 225.98 273.00 226.00 C 273.00 211.33 273.00 196.67 273.00 182.00 C 242.33 181.98 211.66 182.05 180.99 181.96 C 179.70 181.94 178.42 182.04 177.15 182.27 M 124.00 244.00 C 124.02 282.37 123.95 320.74 124.03 359.12 C 139.07 344.12 154.09 329.11 169.07 314.05 C 171.06 311.79 174.00 310.76 176.98 310.97 C 208.99 311.03 240.99 310.99 273.00 311.00 C 273.00 288.67 273.00 266.33 273.00 244.00 C 223.33 244.00 173.67 244.00 124.00 244.00 M 177.15 322.27 C 175.86 322.85 174.89 323.92 173.87 324.87 C 159.96 338.99 145.85 352.90 131.88 366.97 C 178.92 367.04 225.96 366.98 273.00 367.00 C 273.00 352.00 273.00 337.00 273.00 322.00 C 242.33 321.98 211.66 322.05 180.98 321.96 C 179.69 321.94 178.42 322.04 177.15 322.27 Z" />
</g>
</svg>
