<?xml version="1.0" encoding="UTF-8" ?>
<!DOCTYPE svg PUBLIC "-//W3C//DTD SVG 1.1//EN" "http://www.w3.org/Graphics/SVG/1.1/DTD/svg11.dtd">
<svg width="143pt" height="143pt" viewBox="0 0 143 143" version="1.1" xmlns="http://www.w3.org/2000/svg">
<g id="#fefefefe">
<path fill="#fefefe" opacity="1.00" d=" M 46.84 20.15 C 47.89 19.07 48.95 18.00 50.00 16.93 C 55.47 18.86 61.32 18.09 66.99 18.21 C 81.26 18.30 95.53 18.03 109.79 18.36 C 109.97 21.57 110.08 24.78 110.08 28.00 C 110.06 50.69 110.07 73.38 110.08 96.07 C 110.23 98.98 109.30 101.73 108.36 104.43 C 107.60 106.59 108.40 108.83 109.04 110.91 C 109.88 113.44 109.72 116.15 109.92 118.78 C 110.34 120.07 110.88 121.35 111.02 122.72 C 110.00 124.07 108.76 125.22 107.56 126.41 C 106.92 125.96 105.63 125.05 104.99 124.60 C 91.98 124.60 78.96 124.61 65.94 124.58 C 63.03 124.47 60.25 125.38 57.44 126.00 C 58.28 122.35 58.57 118.63 58.51 114.89 C 58.42 112.14 59.72 109.63 60.12 106.96 C 60.21 105.20 59.57 103.51 59.19 101.81 C 55.14 101.71 51.11 102.09 47.19 103.13 C 47.35 100.10 47.94 97.09 47.83 94.04 C 47.80 71.67 47.87 49.31 47.84 26.94 C 47.90 24.63 47.43 22.37 46.84 20.15 M 61.82 21.28 C 61.82 47.04 61.82 72.80 61.82 98.56 C 76.76 98.55 91.71 98.56 106.66 98.56 C 106.63 72.80 106.62 47.05 106.66 21.29 C 91.71 21.27 76.77 21.29 61.82 21.28 M 51.19 21.57 C 51.24 45.73 51.24 69.89 51.19 94.04 C 51.21 95.47 51.22 96.97 51.90 98.28 C 54.07 98.60 56.28 98.58 58.47 98.66 C 58.49 72.96 58.46 47.26 58.48 21.56 C 56.05 21.56 53.62 21.56 51.19 21.57 M 66.78 102.29 C 66.36 106.10 66.95 109.88 67.52 113.64 C 65.58 113.80 63.64 113.94 61.70 114.08 C 62.04 116.39 61.13 119.33 63.09 121.08 C 77.50 121.48 91.94 121.14 106.36 121.24 C 106.36 118.86 106.36 116.48 106.37 114.10 C 104.45 113.94 102.54 113.78 100.63 113.60 C 101.49 109.75 102.43 105.77 101.13 101.89 C 89.68 102.08 78.20 101.42 66.78 102.29 Z" />
<path fill="#fefefe" opacity="1.00" d=" M 34.40 43.48 C 32.49 41.04 33.72 36.40 37.13 36.21 C 40.67 35.82 42.21 39.76 44.26 41.88 C 44.28 39.95 44.30 38.03 44.33 36.10 C 44.87 36.15 45.97 36.23 46.52 36.27 C 46.50 39.43 46.48 42.59 46.33 45.75 C 42.87 43.93 40.46 40.83 37.58 38.31 C 37.03 38.80 35.93 39.78 35.39 40.27 C 36.61 41.92 37.80 43.60 38.88 45.35 C 37.33 44.84 35.84 44.22 34.40 43.48 Z" />
<path fill="#fefefe" opacity="1.00" d=" M 32.07 44.59 C 37.08 45.67 41.76 47.83 46.53 49.63 C 46.52 50.15 46.52 51.18 46.51 51.70 C 41.69 49.39 35.66 48.89 32.07 44.59 Z" />
<path fill="#fefefe" opacity="1.00" d=" M 33.11 54.36 C 37.57 54.14 42.04 54.22 46.51 54.23 C 46.51 54.86 46.50 56.13 46.50 56.76 C 43.61 56.76 40.73 56.76 37.84 56.74 C 37.67 57.71 37.32 59.65 37.14 60.62 C 35.81 58.53 34.46 56.44 33.11 54.36 Z" />
<path fill="#fefefe" opacity="1.00" d=" M 41.32 68.17 C 41.54 67.77 41.96 66.97 42.17 66.57 C 43.67 67.33 45.17 68.06 46.69 68.76 C 46.63 69.20 46.50 70.08 46.44 70.52 C 45.78 70.54 44.45 70.57 43.79 70.59 C 43.70 72.53 43.61 74.47 43.49 76.41 C 40.12 74.86 36.95 72.92 33.79 70.98 C 33.76 70.04 33.73 69.09 33.70 68.15 C 36.24 68.15 38.78 68.15 41.32 68.17 M 36.40 70.60 C 38.18 71.67 39.97 72.72 41.76 73.77 C 41.77 72.69 41.79 71.62 41.80 70.54 C 40.00 70.56 38.20 70.57 36.40 70.60 Z" />
<path fill="#fefefe" opacity="1.00" d=" M 34.42 78.52 C 35.63 76.81 37.91 77.66 39.66 77.58 C 41.68 77.35 44.25 76.31 45.83 78.17 C 47.30 80.03 47.16 83.01 45.60 84.79 C 44.64 85.09 42.72 85.68 41.77 85.98 C 42.88 84.23 44.06 82.52 45.26 80.82 C 44.18 80.23 43.10 79.65 42.01 79.07 C 41.34 80.40 40.68 81.73 40.01 83.07 C 39.32 81.88 38.63 80.69 37.94 79.50 C 37.22 79.90 35.79 80.68 35.07 81.07 C 36.01 82.03 36.95 82.98 37.91 83.92 C 37.72 84.49 37.34 85.62 37.15 86.19 C 35.94 85.14 34.56 84.22 33.66 82.86 C 33.46 81.41 33.38 79.69 34.42 78.52 Z" />
<path fill="#fefefe" opacity="1.00" d=" M 74.32 110.29 C 76.45 109.05 78.56 107.76 80.67 106.48 C 80.79 110.93 80.75 115.37 80.77 119.82 C 80.12 119.81 78.82 119.81 78.17 119.80 C 78.18 116.94 78.18 114.08 78.20 111.22 C 77.23 110.99 75.29 110.52 74.32 110.29 Z" />
<path fill="#fefefe" opacity="1.00" d=" M 85.28 108.42 C 86.93 105.96 91.07 106.04 92.67 108.53 C 92.90 109.97 92.61 111.43 92.47 112.87 C 92.81 114.23 93.24 115.58 93.36 116.99 C 92.40 121.18 85.31 121.23 84.44 116.95 C 84.57 115.52 85.05 114.16 85.44 112.79 C 85.30 111.34 84.94 109.86 85.28 108.42 M 87.52 109.09 C 87.46 109.72 87.36 110.96 87.31 111.59 C 88.04 111.70 89.50 111.93 90.22 112.05 C 90.33 111.10 90.43 110.15 90.53 109.20 C 89.52 109.16 88.52 109.13 87.52 109.09 M 87.25 114.24 C 87.25 115.38 87.26 116.53 87.28 117.67 C 88.39 117.67 89.51 117.66 90.63 117.65 C 90.62 116.50 90.61 115.35 90.60 114.20 C 89.48 114.20 88.37 114.22 87.25 114.24 Z" />
</g>
</svg>
